<svg width="36" height="36" viewBox="0 0 36 36" fill="none" xmlns="http://www.w3.org/2000/svg">
<path d="M13.2222 17.9999V17.9821C13.2239 17.8647 13.2426 17.7481 13.2777 17.6361V17.6264V17.6215C13.3167 17.5021 13.3739 17.3895 13.4472 17.2877L20.8015 6.5261C20.8911 6.39481 21.0056 6.28258 21.1383 6.19581C21.2711 6.10903 21.4194 6.0494 21.575 6.02035C21.7307 5.9913 21.8906 5.99337 22.0455 6.02647C22.2003 6.05956 22.3472 6.12302 22.4776 6.21322C22.6081 6.30346 22.7195 6.41867 22.8057 6.55225C22.8918 6.68583 22.9511 6.83519 22.9799 6.99178C23.0087 7.14838 23.0066 7.30916 22.9736 7.46492C22.9406 7.62068 22.8775 7.76835 22.7878 7.89957L15.886 17.9999L22.7878 28.1002C22.8775 28.2314 22.9406 28.3791 22.9736 28.5348C23.0066 28.6906 23.0087 28.8514 22.9799 29.008C22.9511 29.1646 22.8918 29.3139 22.8057 29.4475C22.7195 29.5811 22.6081 29.6963 22.4776 29.7865C22.3472 29.8768 22.2005 29.9403 22.0457 29.9734C21.8908 30.0066 21.7309 30.0087 21.5752 29.9797C21.4196 29.9508 21.2711 29.8912 21.1383 29.8045C21.0055 29.7178 20.8912 29.6057 20.8015 29.4745L13.4472 18.7121C13.3739 18.6103 13.3167 18.4977 13.2777 18.3782V18.3734V18.3637C13.2427 18.2516 13.224 18.1351 13.2222 18.0177V17.9991V17.9999Z" fill="black"/>
</svg>
